<mxfile host="app.diagrams.net" modified="2023-04-06T14:05:16.445Z" agent="Mozilla/5.0 (Windows NT 10.0; Win64; x64) AppleWebKit/537.36 (KHTML, like Gecko) Chrome/111.0.0.0 Safari/537.36" etag="UecUTme_HNN-FA3Ls2iC" version="21.1.4" type="device">
  <diagram name="Page-1" id="GKdVQf1Ru1EcJ4REWaJj">
    <mxGraphModel dx="880" dy="452" grid="0" gridSize="10" guides="1" tooltips="1" connect="1" arrows="1" fold="1" page="1" pageScale="1" pageWidth="827" pageHeight="1169" background="#FFFFFF" math="0" shadow="0">
      <root>
        <mxCell id="0" />
        <mxCell id="1" parent="0" />
        <mxCell id="zviV2XdOd9_nSVR0M_CM-2" value="Client&amp;nbsp;" style="shape=umlActor;verticalLabelPosition=bottom;verticalAlign=top;html=1;" parent="1" vertex="1">
          <mxGeometry x="70" y="350" width="50" height="100" as="geometry" />
        </mxCell>
        <mxCell id="zviV2XdOd9_nSVR0M_CM-3" value="Admin&lt;br&gt;" style="shape=umlActor;verticalLabelPosition=bottom;verticalAlign=top;html=1;" parent="1" vertex="1">
          <mxGeometry x="700" y="350" width="50" height="100" as="geometry" />
        </mxCell>
        <mxCell id="zviV2XdOd9_nSVR0M_CM-9" value="" style="swimlane;startSize=0;" parent="1" vertex="1">
          <mxGeometry x="210" y="80" width="390" height="710" as="geometry" />
        </mxCell>
        <mxCell id="zviV2XdOd9_nSVR0M_CM-6" value="&lt;font style=&quot;font-size: 16px;&quot;&gt;Online Banking System&amp;nbsp;&lt;/font&gt;" style="text;html=1;strokeColor=none;fillColor=none;align=center;verticalAlign=middle;whiteSpace=wrap;rounded=0;" parent="zviV2XdOd9_nSVR0M_CM-9" vertex="1">
          <mxGeometry y="-10" width="390" height="50" as="geometry" />
        </mxCell>
        <mxCell id="zviV2XdOd9_nSVR0M_CM-13" value="&lt;span style=&quot;font-size: 17px;&quot;&gt;Register&lt;/span&gt;" style="ellipse;whiteSpace=wrap;html=1;" parent="zviV2XdOd9_nSVR0M_CM-9" vertex="1">
          <mxGeometry x="130" y="44" width="110" height="50" as="geometry" />
        </mxCell>
        <mxCell id="zviV2XdOd9_nSVR0M_CM-15" value="&lt;font style=&quot;font-size: 17px;&quot;&gt;Login&amp;nbsp;&lt;/font&gt;" style="ellipse;whiteSpace=wrap;html=1;" parent="zviV2XdOd9_nSVR0M_CM-9" vertex="1">
          <mxGeometry x="112" y="150" width="130" height="50" as="geometry" />
        </mxCell>
        <mxCell id="zviV2XdOd9_nSVR0M_CM-14" value="&lt;font style=&quot;font-size: 17px;&quot;&gt;View Account&amp;nbsp;&lt;/font&gt;" style="ellipse;whiteSpace=wrap;html=1;" parent="zviV2XdOd9_nSVR0M_CM-9" vertex="1">
          <mxGeometry x="110" y="218" width="140" height="50" as="geometry" />
        </mxCell>
        <mxCell id="KBUdnzKZ614Q3VEPy319-1" value="Add new account&amp;nbsp;" style="ellipse;whiteSpace=wrap;html=1;" parent="zviV2XdOd9_nSVR0M_CM-9" vertex="1">
          <mxGeometry x="122" y="488" width="120" height="50" as="geometry" />
        </mxCell>
        <mxCell id="KBUdnzKZ614Q3VEPy319-2" value="logout&amp;nbsp;" style="ellipse;whiteSpace=wrap;html=1;" parent="zviV2XdOd9_nSVR0M_CM-9" vertex="1">
          <mxGeometry x="273" y="647" width="80" height="40" as="geometry" />
        </mxCell>
        <mxCell id="KBUdnzKZ614Q3VEPy319-3" value="closeAccount&amp;nbsp;" style="ellipse;whiteSpace=wrap;html=1;" parent="zviV2XdOd9_nSVR0M_CM-9" vertex="1">
          <mxGeometry x="276" y="433" width="100" height="40" as="geometry" />
        </mxCell>
        <mxCell id="KBUdnzKZ614Q3VEPy319-13" value="Perform transtions" style="ellipse;whiteSpace=wrap;html=1;" parent="zviV2XdOd9_nSVR0M_CM-9" vertex="1">
          <mxGeometry x="20" y="355" width="140" height="40" as="geometry" />
        </mxCell>
        <mxCell id="KBUdnzKZ614Q3VEPy319-15" value="&amp;lt;&amp;lt;include&amp;gt;&amp;gt;" style="html=1;verticalAlign=bottom;labelBackgroundColor=none;endArrow=open;endFill=0;dashed=1;rounded=0;entryX=0.5;entryY=1;entryDx=0;entryDy=0;" parent="zviV2XdOd9_nSVR0M_CM-9" target="zviV2XdOd9_nSVR0M_CM-13" edge="1">
          <mxGeometry width="160" relative="1" as="geometry">
            <mxPoint x="185" y="150" as="sourcePoint" />
            <mxPoint x="281" y="210" as="targetPoint" />
          </mxGeometry>
        </mxCell>
        <mxCell id="KBUdnzKZ614Q3VEPy319-17" value="&amp;lt;&amp;lt;extend&amp;gt;&amp;gt;" style="html=1;verticalAlign=bottom;labelBackgroundColor=none;endArrow=open;endFill=0;dashed=1;rounded=0;exitX=0.373;exitY=1.035;exitDx=0;exitDy=0;exitPerimeter=0;" parent="zviV2XdOd9_nSVR0M_CM-9" source="zviV2XdOd9_nSVR0M_CM-14" target="KBUdnzKZ614Q3VEPy319-13" edge="1">
          <mxGeometry width="160" relative="1" as="geometry">
            <mxPoint x="130" y="260" as="sourcePoint" />
            <mxPoint x="290" y="260" as="targetPoint" />
          </mxGeometry>
        </mxCell>
        <mxCell id="KBUdnzKZ614Q3VEPy319-18" value="&amp;lt;&amp;lt;extend&amp;gt;&amp;gt;" style="html=1;verticalAlign=bottom;labelBackgroundColor=none;endArrow=open;endFill=0;dashed=1;rounded=0;exitX=0.714;exitY=0.96;exitDx=0;exitDy=0;exitPerimeter=0;" parent="zviV2XdOd9_nSVR0M_CM-9" source="zviV2XdOd9_nSVR0M_CM-14" target="KBUdnzKZ614Q3VEPy319-3" edge="1">
          <mxGeometry width="160" relative="1" as="geometry">
            <mxPoint x="130" y="260" as="sourcePoint" />
            <mxPoint x="290" y="260" as="targetPoint" />
            <Array as="points" />
          </mxGeometry>
        </mxCell>
        <mxCell id="KBUdnzKZ614Q3VEPy319-19" value="&amp;lt;&amp;lt;extend&amp;gt;&amp;gt;" style="html=1;verticalAlign=bottom;labelBackgroundColor=none;endArrow=open;endFill=0;dashed=1;rounded=0;exitX=0.5;exitY=1;exitDx=0;exitDy=0;" parent="zviV2XdOd9_nSVR0M_CM-9" source="zviV2XdOd9_nSVR0M_CM-14" target="KBUdnzKZ614Q3VEPy319-1" edge="1">
          <mxGeometry width="160" relative="1" as="geometry">
            <mxPoint x="130" y="260" as="sourcePoint" />
            <mxPoint x="290" y="260" as="targetPoint" />
          </mxGeometry>
        </mxCell>
        <mxCell id="MfDho41uVhYmmZPyFhta-2" value="&amp;lt;&amp;lt;extend&amp;gt;&amp;gt;" style="html=1;verticalAlign=bottom;labelBackgroundColor=none;endArrow=open;endFill=0;dashed=1;rounded=0;exitX=0.607;exitY=1.04;exitDx=0;exitDy=0;exitPerimeter=0;" edge="1" parent="zviV2XdOd9_nSVR0M_CM-9" source="zviV2XdOd9_nSVR0M_CM-14" target="KBUdnzKZ614Q3VEPy319-2">
          <mxGeometry width="160" relative="1" as="geometry">
            <mxPoint x="122" y="332" as="sourcePoint" />
            <mxPoint x="282" y="332" as="targetPoint" />
          </mxGeometry>
        </mxCell>
        <mxCell id="KBUdnzKZ614Q3VEPy319-4" value="" style="endArrow=classic;html=1;rounded=0;exitX=0.5;exitY=0.6;exitDx=0;exitDy=0;exitPerimeter=0;entryX=0.036;entryY=0.671;entryDx=0;entryDy=0;entryPerimeter=0;" parent="1" source="zviV2XdOd9_nSVR0M_CM-2" target="zviV2XdOd9_nSVR0M_CM-15" edge="1">
          <mxGeometry width="50" height="50" relative="1" as="geometry">
            <mxPoint x="390" y="490" as="sourcePoint" />
            <mxPoint x="440" y="440" as="targetPoint" />
          </mxGeometry>
        </mxCell>
        <mxCell id="KBUdnzKZ614Q3VEPy319-5" value="" style="endArrow=classic;html=1;rounded=0;exitX=0.5;exitY=0.5;exitDx=0;exitDy=0;exitPerimeter=0;" parent="1" source="zviV2XdOd9_nSVR0M_CM-2" target="zviV2XdOd9_nSVR0M_CM-13" edge="1">
          <mxGeometry width="50" height="50" relative="1" as="geometry">
            <mxPoint x="100" y="410" as="sourcePoint" />
            <mxPoint x="440" y="250" as="targetPoint" />
          </mxGeometry>
        </mxCell>
        <mxCell id="KBUdnzKZ614Q3VEPy319-6" value="" style="endArrow=classic;html=1;rounded=0;exitX=0.5;exitY=0.64;exitDx=0;exitDy=0;exitPerimeter=0;entryX=0;entryY=0.5;entryDx=0;entryDy=0;" parent="1" source="zviV2XdOd9_nSVR0M_CM-2" target="zviV2XdOd9_nSVR0M_CM-14" edge="1">
          <mxGeometry width="50" height="50" relative="1" as="geometry">
            <mxPoint x="390" y="300" as="sourcePoint" />
            <mxPoint x="440" y="250" as="targetPoint" />
          </mxGeometry>
        </mxCell>
        <mxCell id="KBUdnzKZ614Q3VEPy319-7" value="" style="endArrow=classic;html=1;rounded=0;exitX=0.5;exitY=0.5;exitDx=0;exitDy=0;exitPerimeter=0;" parent="1" source="zviV2XdOd9_nSVR0M_CM-3" target="KBUdnzKZ614Q3VEPy319-3" edge="1">
          <mxGeometry width="50" height="50" relative="1" as="geometry">
            <mxPoint x="400" y="330" as="sourcePoint" />
            <mxPoint x="450" y="280" as="targetPoint" />
          </mxGeometry>
        </mxCell>
        <mxCell id="KBUdnzKZ614Q3VEPy319-9" value="" style="endArrow=classic;html=1;rounded=0;entryX=0.99;entryY=0.657;entryDx=0;entryDy=0;entryPerimeter=0;" parent="1" target="KBUdnzKZ614Q3VEPy319-2" edge="1">
          <mxGeometry width="50" height="50" relative="1" as="geometry">
            <mxPoint x="725" y="400" as="sourcePoint" />
            <mxPoint x="450" y="280" as="targetPoint" />
          </mxGeometry>
        </mxCell>
        <mxCell id="KBUdnzKZ614Q3VEPy319-10" value="" style="endArrow=classic;html=1;rounded=0;exitX=0.527;exitY=0.654;exitDx=0;exitDy=0;exitPerimeter=0;entryX=0;entryY=0.5;entryDx=0;entryDy=0;" parent="1" source="zviV2XdOd9_nSVR0M_CM-2" target="KBUdnzKZ614Q3VEPy319-2" edge="1">
          <mxGeometry width="50" height="50" relative="1" as="geometry">
            <mxPoint x="400" y="440" as="sourcePoint" />
            <mxPoint x="450" y="390" as="targetPoint" />
          </mxGeometry>
        </mxCell>
        <mxCell id="KBUdnzKZ614Q3VEPy319-11" value="" style="endArrow=classic;html=1;rounded=0;entryX=1;entryY=0.5;entryDx=0;entryDy=0;" parent="1" target="zviV2XdOd9_nSVR0M_CM-14" edge="1">
          <mxGeometry width="50" height="50" relative="1" as="geometry">
            <mxPoint x="720" y="400" as="sourcePoint" />
            <mxPoint x="450" y="390" as="targetPoint" />
          </mxGeometry>
        </mxCell>
        <mxCell id="KBUdnzKZ614Q3VEPy319-12" value="" style="endArrow=classic;html=1;rounded=0;exitX=0.509;exitY=0.654;exitDx=0;exitDy=0;exitPerimeter=0;" parent="1" source="zviV2XdOd9_nSVR0M_CM-2" target="KBUdnzKZ614Q3VEPy319-1" edge="1">
          <mxGeometry width="50" height="50" relative="1" as="geometry">
            <mxPoint x="90" y="420" as="sourcePoint" />
            <mxPoint x="450" y="390" as="targetPoint" />
          </mxGeometry>
        </mxCell>
        <mxCell id="KBUdnzKZ614Q3VEPy319-14" value="" style="endArrow=classic;html=1;rounded=0;exitX=0.509;exitY=0.608;exitDx=0;exitDy=0;exitPerimeter=0;entryX=0;entryY=0.5;entryDx=0;entryDy=0;" parent="1" source="zviV2XdOd9_nSVR0M_CM-2" target="KBUdnzKZ614Q3VEPy319-13" edge="1">
          <mxGeometry width="50" height="50" relative="1" as="geometry">
            <mxPoint x="400" y="450" as="sourcePoint" />
            <mxPoint x="450" y="400" as="targetPoint" />
          </mxGeometry>
        </mxCell>
        <mxCell id="KBUdnzKZ614Q3VEPy319-8" value="" style="endArrow=classic;html=1;rounded=0;exitX=0.5;exitY=0.5;exitDx=0;exitDy=0;exitPerimeter=0;entryX=1.001;entryY=0.689;entryDx=0;entryDy=0;entryPerimeter=0;" parent="1" source="zviV2XdOd9_nSVR0M_CM-3" target="zviV2XdOd9_nSVR0M_CM-15" edge="1">
          <mxGeometry width="50" height="50" relative="1" as="geometry">
            <mxPoint x="715" y="370" as="sourcePoint" />
            <mxPoint x="450" y="220" as="targetPoint" />
            <Array as="points">
              <mxPoint x="461" y="269" />
            </Array>
          </mxGeometry>
        </mxCell>
      </root>
    </mxGraphModel>
  </diagram>
</mxfile>
